<svg id="Layer_1" data-name="Layer 1" xmlns="http://www.w3.org/2000/svg" viewBox="0 0 512 512"><defs><style>.cls-1{fill:#d9e4e8;}.cls-2{fill:#79d3d3;}.cls-3{fill:#141f38;}</style></defs><title>whiskey-bottle-filled</title><path class="cls-1" d="M230.4,230.4V209.93L223,173a111.26,111.26,0,0,1,1.54-50.25l.3-1.13L229.43,64h53.15l4.56,57.66.3,1.13A111.29,111.29,0,0,1,289,173l-7.38,36.89V230.4Z"/><path class="cls-1" d="M209.21,499.2a32,32,0,0,1-32-30.54l-9-197.71A45.16,45.16,0,0,1,196.57,227l23.49-9.4h71.87L315.42,227a45.18,45.18,0,0,1,28.33,44l-9,197.71a32,32,0,0,1-32,30.54Z"/><path class="cls-2" d="M223.36,448l-5.71-126.33c-.06-.91,0-1.51,0-2.07a38.4,38.4,0,1,1,76.8,0c0,.56,0,1.16,0,1.72L288.64,448Z"/><path class="cls-3" d="M320.17,215.11l-24.59-9.84,5.95-29.73a124.41,124.41,0,0,0-1.72-56.06L294.4,51.2V0H217.6V51.2l-5.41,68.28a124.41,124.41,0,0,0-1.72,56.06l5.95,29.73-24.59,9.84a57.93,57.93,0,0,0-36.36,56.42l9,197.71A44.8,44.8,0,0,0,209.21,512h93.58a44.8,44.8,0,0,0,44.75-42.77l9-197.71A57.93,57.93,0,0,0,320.17,215.11ZM242.43,204.8l-6.86-34.28a98.46,98.46,0,0,1,1.35-44.44l.6-2.25.18-2.32,3.54-44.7h29.5l3.54,44.7.18,2.32.6,2.25a98.49,98.49,0,0,1,1.35,44.45l-6.86,34.28Zm.77-179.2h25.6V51.2H243.2ZM331,270.37l-9,197.71a19.17,19.17,0,0,1-19.18,18.33H209.21A19.17,19.17,0,0,1,190,468.07l-9-197.71a32.36,32.36,0,0,1,20.29-31.49l21.2-8.48h66.94l21.2,8.48A32.36,32.36,0,0,1,331,270.37Zm-75-2a51.17,51.17,0,0,0-51.2,51.2c0,.86,0,1.78.06,2.64l5.71,126.34a12.8,12.8,0,0,0,12.79,12.22h65.28a12.8,12.8,0,0,0,12.79-12.22l5.71-126.34c.06-.86.06-1.78.06-2.64A51.17,51.17,0,0,0,256,268.4Zm25.6,52,0,.33v.34L276.41,435.2H235.59l-5.16-114.11v-.16l0-.33c0-.33,0-.67,0-1a25.6,25.6,0,1,1,51.2,0C281.6,319.92,281.61,320.26,281.6,320.42Z"/></svg>