<?xml version="1.0" encoding="utf-8"?>
<!-- Generator: Adobe Illustrator 25.4.1, SVG Export Plug-In . SVG Version: 6.00 Build 0)  -->
<svg version="1.1" id="Layer_1" xmlns="http://www.w3.org/2000/svg" xmlns:xlink="http://www.w3.org/1999/xlink" x="0px" y="0px"
	 viewBox="0 0 50 50" style="enable-background:new 0 0 50 50;" xml:space="preserve">
<style type="text/css">
	.st0{fill:#FF0000;}
</style>
<g>
	<g>
		<path d="M16.12,37.63c0-2.98-0.38-5.94-0.71-8.9c-0.17-1.48-0.33-2.96-0.41-4.45c-0.07-1.13-0.36-2.63,0.37-3.59
			c0.49-0.65,0.1-1.68-0.54-2.05c-0.77-0.45-1.56-0.11-2.05,0.54c-0.89,1.17-0.87,2.68-0.82,4.08c0.06,1.6,0.21,3.2,0.38,4.8
			c0.35,3.19,0.79,6.37,0.79,9.59C13.12,39.56,16.12,39.56,16.12,37.63L16.12,37.63z"/>
	</g>
</g>
<g>
	<g>
		<path d="M15.15,39.27c6.71,0.76,13.59,1.18,20.15-0.75c1.85-0.54,1.06-3.44-0.8-2.89c-6.3,1.86-12.92,1.38-19.36,0.65
			c-0.81-0.09-1.5,0.75-1.5,1.5C13.65,38.66,14.34,39.18,15.15,39.27L15.15,39.27z"/>
	</g>
</g>
<g>
	<g>
		<path d="M36.24,37.45c1.12-4.07,2.41-8.12,1.72-12.39c-0.62-3.8-3.7-5.79-6.11-8.45c-1.3-1.43-3.41,0.69-2.12,2.12
			c2,2.21,4.86,3.91,5.33,7.09c0.55,3.7-0.74,7.31-1.71,10.83C32.84,38.51,35.73,39.31,36.24,37.45L36.24,37.45z"/>
	</g>
</g>
<g>
	<g>
		<path d="M14.76,20.74c2.26-0.13,4.14-1.46,5.34-3.34c0.66-1.04,1.09-2.24,1.43-3.42c0.32-1.15,0.93-2.63-0.14-3.55
			c-0.44-0.38-1.3-0.45-1.27-1.22c0.04-1.01,1.36-0.83,2-0.79c1.16,0.08,2.32,0.17,3.46,0.4c0.56,0.11,1.12,0.25,1.66,0.42
			c0.27,0.08,0.55,0.17,0.81,0.28c0.19,0.08,0.39,0.31,0.29,0.03c0.35-0.62,0.7-1.23,1.05-1.85c-0.75,0.19-1.51,0.38-2.26,0.57
			c-0.75,0.19-1.55,0.32-2.15,0.84c-1.2,1.04-0.91,2.61-0.55,3.97c0.36,1.34,0.96,2.65,1.99,3.61c1.01,0.94,2.24,1.53,3.49,2.06
			c0.74,0.32,1.61,0.22,2.05-0.54c0.37-0.63,0.21-1.73-0.54-2.05c-1.61-0.69-3.24-1.39-3.88-3.15c-0.16-0.44-0.28-0.9-0.38-1.36
			c-0.01-0.04-0.12-0.55-0.09-0.54c-0.02,0.04-0.04,0.08-0.06,0.12c-0.22,0.18-0.24,0.24-0.06,0.17c0.15,0.05,0.51-0.13,0.68-0.17
			c0.28-0.07,0.57-0.14,0.85-0.21c0.57-0.14,1.13-0.29,1.7-0.43c0.75-0.19,1.31-1.09,1.05-1.85c-0.64-1.87-2.84-2.4-4.58-2.77
			c-1.83-0.39-3.98-0.75-5.86-0.57c-1.87,0.18-3.41,1.52-3.64,3.43c-0.1,0.89,0.12,1.8,0.63,2.54c0.27,0.39,0.56,0.7,0.94,0.97
			c0.17,0.13,0.35,0.24,0.54,0.34c0.1,0.05,0.68,0.39,0.45,0.21c-0.23-0.3-0.46-0.6-0.69-0.9c0.02,0.06,0.03,0.11,0.05,0.17
			c0-0.27,0-0.53,0-0.8c-0.35,2.28-1.46,6.21-4.31,6.37C12.84,17.84,12.82,20.84,14.76,20.74L14.76,20.74z"/>
	</g>
</g>
<g>
	<g>
		<path d="M13.47,30.33c4.18,0.58,8.39,1.36,12.6,1.68c1.79,0.13,3.66,0.06,5.36-0.58c1.81-0.68,3.16-1.99,4.72-3.07
			c0.95-0.65,1.02-2.5-0.36-2.74c-1.88-0.32-3.3,0.53-5.07,0.97C29.05,27,27.31,27,25.59,26.98c-3.62-0.05-7.24-0.17-10.65-1.51
			c-0.27,0.96-0.53,1.93-0.8,2.89c3.63,0.67,7.36,1.25,11.06,1.21c3.75-0.04,7.25-1.11,10.83-2.12c1.86-0.52,1.07-3.42-0.8-2.89
			c-3.32,0.93-6.56,1.98-10.03,2.01c-3.44,0.03-6.89-0.48-10.27-1.11c-1.92-0.36-2.58,2.19-0.8,2.89c3.39,1.34,7.07,1.54,10.67,1.61
			c1.74,0.03,3.47,0.04,5.2-0.21c0.89-0.13,1.75-0.31,2.6-0.6c0.73-0.25,1.59-0.77,2.38-0.64c-0.12-0.91-0.24-1.83-0.36-2.74
			c-1.32,0.91-2.51,2.15-4,2.77c-1.55,0.64-3.3,0.59-4.93,0.44c-3.82-0.34-7.64-1.02-11.44-1.54c-0.81-0.11-1.6,0.2-1.85,1.05
			C12.22,29.19,12.66,30.22,13.47,30.33L13.47,30.33z"/>
	</g>
</g>
<g>
	<g>
		<path class="st0" d="M22.13,24.37c-0.51,0.09,0.04,0.01,0.19,0.02c0.16,0.01,0.32,0.02,0.48,0.03c0.43,0.03,0.88,0.02,1.29-0.11
			c1.08-0.34,1.71-1.26,1.91-2.34c0.19-1.02,0.22-2.14-0.29-3.08c-0.59-1.07-1.84-1.5-3-1.27c-0.95,0.19-1.8,0.94-2.24,1.78
			c-0.48,0.9-0.61,1.89-0.42,2.89c0.33,1.75,2.15,3.31,3.97,3.16c2.28-0.19,3-2.78,3.22-4.69c0.15-1.32-0.79-2.43-2.12-2.45
			c-0.85-0.01-1.71,0.42-2.4,0.87c-0.65,0.43-1.26,0.94-1.74,1.55c-0.67,0.84-1.39,1.89-1.08,3.03c0.26,0.99,1.21,1.65,2.1,2.06
			c0.41,0.19,0.83,0.37,1.27,0.45c0.87,0.18,1.72-0.12,2.18-0.9c0.49-0.84,0.51-1.99,0.27-2.91c-0.24-0.92-0.82-1.87-1.69-2.3
			c-1.24-0.61-2.75-0.04-3.1,1.35c-0.29,1.12,0.3,2.26,1.29,2.8c0.89,0.48,2.15,0.78,3.07,0.25c1.08-0.62,1.3-1.96,1.15-3.08
			c-0.16-1.2-0.9-2.16-2.03-2.61c-0.99-0.39-2.15-0.1-2.89,0.66c-1.54,1.59-0.82,4.17,1.04,5.14c1.73,0.9,4.56,0.88,5.22-1.36
			c0.28-0.93,0.08-2.09-0.37-2.93c-0.56-1.04-1.82-1.7-2.99-1.37c-0.92,0.26-1.83,1.03-2.27,1.88c-0.57,1.11-0.32,2.41,0.65,3.2
			c0.74,0.59,1.63,1,2.57,1.15c0.66,0.11,1.32,0.16,1.92-0.19c0.54-0.32,0.88-0.85,1.07-1.44c0.28-0.88,0.22-1.96-0.04-2.83
			c-0.26-0.84-0.72-1.65-1.4-2.22c-0.72-0.61-1.63-1.04-2.6-0.97c-0.93,0.06-1.83,0.48-2.42,1.2c-0.71,0.86-0.96,1.87-0.78,2.96
			c0.16,0.97,0.75,1.79,1.54,2.36c0.69,0.49,1.63,0.75,2.48,0.66c0.41-0.04,0.76-0.14,1.06-0.44c0.26-0.26,0.46-0.69,0.44-1.06
			c-0.03-0.75-0.66-1.58-1.5-1.5c-0.12,0.01-0.23,0.02-0.35,0.01c-0.05,0-0.12-0.02-0.17-0.01c0.04,0,0.37,0.08,0.14,0.01
			c-0.1-0.03-0.24-0.09-0.33-0.1c0,0,0.29,0.14,0.16,0.07c-0.06-0.03-0.13-0.06-0.19-0.1c-0.01,0-0.12-0.09-0.15-0.09
			c0.11,0,0.24,0.21,0.1,0.08c-0.08-0.08-0.16-0.18-0.24-0.25c0.03,0.03,0.19,0.3,0.08,0.09c-0.03-0.05-0.06-0.1-0.09-0.15
			c-0.06-0.11-0.02-0.19,0.04,0.12c-0.01-0.06-0.04-0.11-0.06-0.16c-0.02-0.06-0.03-0.11-0.04-0.17c-0.07-0.23,0.02,0.1,0.01,0.14
			c0.01-0.11-0.01-0.24-0.01-0.35c0-0.19,0.09,0.01-0.02,0.14c0.02-0.02,0.04-0.15,0.04-0.17c0.01-0.05,0.04-0.11,0.05-0.16
			c-0.02,0.09-0.15,0.32-0.03,0.1c0.02-0.04,0.04-0.07,0.06-0.1c0.12-0.2-0.07,0.09-0.09,0.11c0.05-0.04,0.2-0.17,0.23-0.23
			c-0.08,0.17-0.26,0.17-0.11,0.09c0.05-0.03,0.09-0.06,0.14-0.09c0.04-0.02,0.1-0.04,0.14-0.07c-0.07,0.06-0.34,0.12-0.1,0.05
			c0.05-0.02,0.1-0.02,0.16-0.04c0.15-0.05-0.21,0.05-0.2,0.02c0.01-0.04,0.3,0.01,0.33,0c-0.25,0.05-0.31-0.06-0.15-0.01
			c0.05,0.01,0.11,0.03,0.16,0.04c0.13,0.03,0.11,0.12-0.13-0.06c0.05,0.04,0.13,0.06,0.19,0.09c0.05,0.03,0.37,0.26,0.16,0.09
			c-0.2-0.15,0.06,0.06,0.11,0.11c0.07,0.07,0.15,0.2,0.23,0.26c-0.19-0.13-0.16-0.23-0.08-0.1c0.04,0.06,0.08,0.12,0.11,0.18
			c0.03,0.05,0.06,0.1,0.08,0.15c0.01,0.01,0.01,0.03,0.02,0.04c0.05,0.11,0.05,0.1,0-0.01c-0.01-0.03-0.02-0.06-0.04-0.09
			c0.02,0.05,0.04,0.09,0.05,0.14c0.02,0.05,0.03,0.1,0.05,0.14c0.04,0.13,0.07,0.26,0.1,0.39c0.06,0.26-0.02-0.06-0.01-0.1
			c-0.01,0.07,0.02,0.18,0.02,0.25c0.01,0.14,0,0.27,0,0.41c-0.03,0.39,0.06-0.27-0.01,0.09c-0.02,0.08-0.07,0.18-0.07,0.26
			c0.02-0.26,0.14-0.28,0.05-0.15c0.16-0.19,0.2-0.24,0.12-0.16c-0.08,0.08-0.03,0.04,0.16-0.12c0.1-0.06,0.2-0.06,0.3-0.11
			c0.18-0.07,0.05-0.02-0.05-0.03c-0.21,0,0.3,0.06,0.1,0.01c-0.07-0.01-0.13-0.02-0.2-0.04c-0.11-0.02-0.23-0.05-0.34-0.09
			c-0.06-0.02-0.13-0.04-0.19-0.06c-0.05-0.02-0.09-0.03-0.14-0.05c-0.11-0.04-0.06-0.02,0.13,0.06c-0.07,0.02-0.25-0.12-0.32-0.15
			c-0.11-0.06-0.22-0.13-0.33-0.2c-0.16-0.09,0.22,0.21,0.09,0.07c-0.04-0.04-0.08-0.09-0.13-0.12c-0.12-0.09,0.09,0.13,0.1,0.13
			c-0.15-0.24,0.07,0.33,0.01,0.04c0.01,0.03,0.02,0.38,0.03,0.13c0,0.03-0.08,0.37,0,0.14c0,0-0.15,0.28-0.06,0.15
			c0.03-0.05,0.07-0.11,0.09-0.16c0.09-0.17-0.2,0.21-0.06,0.08c0.05-0.04,0.09-0.09,0.13-0.14c0.04-0.04,0.09-0.09,0.14-0.13
			c0.02-0.02,0.05-0.04,0.07-0.06c0.09-0.07,0.05-0.04-0.12,0.09c0.02,0,0.29-0.17,0.31-0.2c-0.03,0.04-0.34,0.1-0.1,0.05
			c0.01,0-0.34,0.02-0.18,0.02c0.19,0-0.33-0.08-0.15-0.02c0.18,0.06-0.28-0.16-0.12-0.06c0.05,0.04,0.2,0.15,0.03,0
			c-0.22-0.19,0.02,0.06,0.04,0.06c-0.05,0-0.19-0.32-0.08-0.09c0.02,0.04,0.06,0.14,0.09,0.16c-0.03-0.04-0.1-0.33-0.05-0.1
			c0.01,0.06,0.03,0.12,0.05,0.18c0.01,0.06,0.1,0.43,0.04,0.17c-0.05-0.22-0.01-0.04,0,0.03c0,0.07,0.01,0.15,0.01,0.22
			c0,0.03-0.02,0.14-0.01,0.18c0,0,0.03-0.4,0-0.14c-0.01,0.08-0.14,0.29,0.05-0.12c-0.04,0.09-0.19,0.22,0.09-0.11
			c-0.16,0.19,0.28-0.19,0.02-0.03c-0.15,0.1,0.31-0.1,0.14-0.06c-0.05,0.01-0.15,0.02-0.2,0.05c0.16-0.1,0.33-0.03,0.15-0.02
			c-0.06,0-0.11,0.01-0.17,0.01c-0.12,0-0.24-0.01-0.36-0.01c-0.19-0.01-0.01-0.07,0.11,0.02c-0.02-0.02-0.17-0.03-0.19-0.03
			c-0.13-0.03-0.25-0.06-0.37-0.1c0.01,0-0.18-0.07-0.18-0.07c0.05-0.05,0.29,0.14,0.1,0.03c-0.11-0.06-0.22-0.15-0.32-0.2
			c0.04,0.02,0.25,0.24,0.1,0.07c-0.04-0.04-0.08-0.09-0.12-0.13c-0.1-0.1-0.02-0.13,0.07,0.1c-0.02-0.05-0.07-0.1-0.09-0.15
			c-0.01-0.02-0.06-0.14-0.08-0.15c0.14,0.1,0.1,0.29,0.06,0.12c0-0.01-0.03-0.15-0.04-0.17c0.12,0.13,0.01,0.33,0.02,0.14
			c0-0.03-0.01-0.17,0-0.17c0.03-0.01-0.11,0.41-0.02,0.16c0.01-0.04,0.04-0.12,0.05-0.15c0,0.09-0.16,0.32-0.03,0.1
			c0.16-0.27-0.2,0.18-0.02,0.02c0.03-0.02,0.1-0.08,0.12-0.11c-0.11,0.16-0.25,0.18-0.11,0.1c0.22-0.13-0.15,0.06-0.14,0.06
			c0.01-0.02,0.16-0.03,0.15-0.04c0.01,0.05-0.42,0-0.15,0.04c-0.11-0.02-0.34-0.07-0.1-0.01c0.34,0.1-0.24-0.1,0,0
			c0.21,0.09-0.06-0.03-0.09-0.08c0.02,0.03,0.1,0.09,0.13,0.12c0.18,0.16-0.06-0.06-0.07-0.1c0,0.03,0.07,0.13,0.09,0.16
			c0.12,0.2-0.1-0.07-0.04-0.09c0,0,0.06,0.22,0.06,0.23c0.06,0.19-0.02-0.31-0.01-0.11c0,0.06,0.01,0.13,0.01,0.19
			c0,0.07-0.05,0.3-0.02,0.34c-0.07-0.08,0.06-0.31,0.01-0.12c0,0-0.05,0.16-0.05,0.17c-0.04-0.09,0.15-0.3,0.04-0.12
			c0.1-0.16,0.22-0.28,0.4-0.36c0.06-0.03,0.45-0.06,0.3-0.08c-0.06-0.01-0.26-0.02-0.01,0.01c0.28,0.04-0.12-0.04-0.18-0.05
			c-0.1-0.03-0.2-0.06-0.29-0.09c-0.23-0.07,0.1,0.03,0.12,0.05c-0.02-0.02-0.19-0.12-0.22-0.13c0.02,0,0.22,0.21,0.14,0.1
			c-0.04-0.05-0.19-0.18-0.02,0c0.09,0.09,0.12,0.18,0.13,0.32c0.03,0.27,0,0.09,0.01,0.03c0.02-0.16-0.04,0.27-0.04,0.23
			c0.04-0.21-0.08,0.16-0.09,0.17c0.06-0.09,0.04-0.08-0.04,0.04c-0.07,0.11-0.16,0.19-0.28,0.25c-0.14,0.07-0.3,0.13-0.46,0.12
			c0.02,0-0.36-0.07-0.2-0.03c0.18,0.05-0.28-0.17-0.13-0.05c0.06,0.05,0.22,0.09,0.03,0.01c-0.18-0.08-0.06-0.03,0.01,0.03
			c0.14,0.12-0.17-0.26-0.07-0.1c0.06,0.1,0.12,0.27,0.2,0.35c-0.02-0.02-0.12-0.35-0.05-0.11c0.02,0.06,0.04,0.11,0.06,0.17
			c0.03,0.1,0.05,0.21,0.07,0.31c0.04,0.19-0.02-0.33-0.02-0.13c0,0.06,0.01,0.12,0.01,0.18c0,0.06,0,0.12,0,0.18
			c0,0.03,0,0.06-0.01,0.09c-0.01,0.12,0,0.06,0.03-0.17c-0.05,0.09-0.06,0.25-0.08,0.35c-0.03,0.13-0.11,0.13,0.06-0.13
			c0.06-0.06,0.13-0.12,0.19-0.18c0.14-0.21,0.34-0.29,0.6-0.24c0.7-0.1,0.35-0.06,0.09-0.14c-0.03-0.01-0.42-0.13-0.42-0.14
			c0-0.01,0.35,0.17,0.09,0.03c-0.06-0.03-0.12-0.06-0.17-0.09c-0.12-0.06-0.23-0.13-0.34-0.2c-0.04-0.03-0.08-0.05-0.12-0.08
			c-0.07-0.04-0.17-0.18-0.04-0.02c0.13,0.16,0.02,0.02-0.03-0.03c-0.17-0.16-0.04-0.04,0.03,0.07c-0.13-0.2,0.04,0.09,0.05,0.12
			c0.04,0.14,0.04,0.28,0.01,0.42c0.04-0.23,0.01,0.12-0.05,0.08c0,0,0.1-0.19,0.09-0.17c0.12-0.21,0.25-0.4,0.39-0.6
			c0.14-0.2-0.05,0.07-0.07,0.09c0.04-0.04,0.08-0.09,0.11-0.14c0.08-0.09,0.16-0.18,0.24-0.26c0.17-0.17,0.34-0.33,0.53-0.48
			c0.19-0.16-0.07,0.06-0.09,0.07c0.05-0.03,0.1-0.07,0.14-0.1c0.1-0.07,0.2-0.13,0.3-0.19c0.2-0.12,0.41-0.23,0.63-0.33
			c0.23-0.11-0.09,0.04-0.11,0.05c0.05-0.01,0.1-0.04,0.15-0.05c0.05-0.02,0.1-0.03,0.15-0.04c0.25-0.08-0.18,0.03-0.16,0.02
			c0.02-0.02,0.14,0.02,0.15,0c-0.07,0.06-0.46-0.11-0.48-0.12c-0.13-0.08-0.25-0.19-0.33-0.33c-0.03-0.07-0.06-0.14-0.09-0.21
			c-0.02-0.25-0.03-0.31-0.03-0.19c0,0.04,0,0.09,0,0.13c0,0.24,0.01-0.1,0.02-0.13c-0.03,0.13-0.04,0.28-0.07,0.41
			c-0.06,0.29-0.13,0.58-0.22,0.86c-0.04,0.12-0.08,0.23-0.12,0.35c-0.02,0.07-0.05,0.13-0.07,0.2c-0.1,0.26,0.03-0.07,0.05-0.1
			c-0.06,0.1-0.1,0.21-0.16,0.31c-0.02,0.04-0.08,0.1-0.09,0.15c0.03-0.08,0.2-0.28,0.04-0.08c-0.11,0.14,0.27-0.16,0.11-0.08
			c-0.05,0.03-0.21,0.13-0.02,0.02c0.17-0.09,0.06-0.03,0-0.02c0.35-0.08,0.22-0.02,0.11-0.03c-0.27-0.02,0.08,0.01,0.11,0.03
			c-0.04-0.02-0.14-0.03-0.19-0.04c-0.06-0.02-0.11-0.04-0.17-0.05c-0.25-0.07,0.24,0.13,0.09,0.04c-0.1-0.06-0.19-0.1-0.29-0.17
			c-0.29-0.19,0.19,0.18,0.01,0c-0.08-0.08-0.16-0.16-0.23-0.24c-0.16-0.17,0.07,0.08,0.08,0.11c-0.03-0.06-0.08-0.12-0.11-0.17
			c-0.03-0.05-0.2-0.41-0.09-0.15c0.11,0.25-0.03-0.13-0.05-0.18c-0.01-0.04-0.02-0.09-0.03-0.13c-0.06-0.25,0.02,0.11,0.02,0.13
			c0.02-0.1,0.02-0.35,0-0.45c0-0.01-0.06,0.33-0.02,0.18c0.01-0.06,0.02-0.12,0.04-0.17c0.01-0.06,0.03-0.12,0.05-0.17
			c0.02-0.07,0.11-0.22,0-0.03c-0.13,0.22,0.05-0.09,0.08-0.14c0.03-0.05,0.06-0.1,0.09-0.15c0.15-0.25-0.23,0.22-0.01,0.02
			c0.05-0.05,0.3-0.27,0.12-0.13c-0.18,0.14-0.02,0.02,0.03-0.01c0.07-0.04,0.23-0.08,0.02-0.03c-0.35,0.09,0.43-0.07,0.04-0.01
			c-0.23,0.03-0.09,0.02-0.03,0.01c0.29-0.01-0.35-0.09-0.06-0.01c0.19,0.05-0.06,0.04-0.12-0.06c0.01,0.01,0.14,0.09,0.14,0.09
			c0.01,0-0.27-0.2-0.14-0.1c0.14,0.12-0.15-0.26-0.08-0.1c0.14,0.33-0.08-0.31,0.01,0.05c0.02,0.07,0.04,0.26,0.02,0.02
			c-0.02-0.28,0,0.03,0,0.07c0.01,0.13,0.01,0.27,0,0.4c0,0.07-0.01,0.14-0.01,0.21c0,0.05-0.03,0.22,0,0.01
			c0.04-0.23,0,0-0.01,0.06c-0.01,0.07-0.03,0.14-0.04,0.2c-0.03,0.11-0.12,0.28-0.11,0.38c0-0.01,0.14-0.36,0.04-0.12
			c-0.04,0.08-0.19,0.22,0.08-0.1c-0.07,0.08-0.22,0.14,0.11-0.08c-0.12,0.08-0.13-0.01,0.15-0.05c-0.06,0.01-0.4,0.08-0.11,0.04
			c0.28-0.04-0.13-0.01-0.21-0.01c-0.58-0.02-1.1-0.06-1.68,0.05c-0.77,0.14-1.28,1.12-1.05,1.85
			C20.56,24.16,21.3,24.52,22.13,24.37L22.13,24.37z"/>
	</g>
</g>
<g>
	<g>
		<path class="st0" d="M21.36,10.51c0.32-0.04,0.66-0.01,0.98,0.05c0.11,0.02,0.81,0.25,0.77,0.19c-0.07-0.25-0.14-0.5-0.2-0.76
			c0,0.06,0,0.13,0,0.19c0.15-0.35,0.29-0.71,0.44-1.06c-0.2,0.23-1.28,0.46-1.67,0.68c-0.66,0.37-0.99,1.01-0.99,1.77
			c0,0.75,0.16,1.54,0.24,2.29c0.07,0.68,0.13,0.82-0.25,1.35c-0.74,1.02-1.5,2.02-2.41,2.89c-0.87,0.82-2.01,1.29-2.86,2.13
			c-1.98,1.92-1.16,5.69,1.55,6.48c1.36,0.4,2.96,0.08,4.35,0.06c1.53-0.02,3.06,0.02,4.59,0.07c1.71,0.05,3.42,0.09,5.13,0.05
			c1.53-0.04,3.01-0.14,4.19-1.22c0.59-0.54,0.57-1.58,0-2.12c-1.05-1-2.33-1.73-3.36-2.74c-0.94-0.92-1.78-1.95-2.62-2.96
			c-1.7-2.05-3.19-4.29-3.63-6.96c-0.29-1.74-2.86-1.2-2.95,0.4c-0.08,1.41-0.15,2.82-0.23,4.22c-0.04,0.7-0.1,0.83-0.6,1.31
			c-0.4,0.38-0.81,0.72-1.26,1.03c-1.09,0.74-2.19,1.3-2.99,2.39c-0.6,0.82-1.35,2.04-1.38,3.08c-0.09,3.04,4.41,2.45,6.32,2.17
			c2.65-0.39,5.13-0.76,7.79-0.2c1.66,0.35,2.62-1.8,1.16-2.74c-1.74-1.12-3.42-2.63-5.62-2.29c-1.96,0.3-3.81,1.31-5.82,0.7
			c-1.85-0.56-2.64,2.34-0.8,2.89c1.94,0.58,3.9,0.21,5.8-0.32c0.79-0.22,1.52-0.55,2.28-0.1c0.9,0.53,1.76,1.14,2.64,1.7
			c0.39-0.91,0.77-1.83,1.16-2.74c-2.16-0.45-4.32-0.55-6.51-0.25c-1,0.14-1.99,0.34-2.99,0.47c-0.81,0.1-2.31,0.38-3.03-0.08
			c0.18,0.18,0.36,0.36,0.54,0.54c-0.02,0.53,0.03,0.6,0.17,0.19c0.04-0.09,0.09-0.17,0.13-0.26c0.13-0.26,0.27-0.52,0.42-0.76
			c0.31-0.49,0.67-0.82,1.16-1.12c1.04-0.65,2.05-1.32,2.95-2.17c0.41-0.39,0.86-0.82,1.13-1.33c0.33-0.65,0.32-1.4,0.35-2.11
			c0.08-1.41,0.15-2.82,0.23-4.22c-0.98,0.13-1.96,0.27-2.95,0.4c0.49,2.97,2.16,5.51,4.01,7.81c0.89,1.1,1.81,2.21,2.8,3.22
			c1.09,1.12,2.46,1.88,3.58,2.96c0-0.71,0-1.41,0-2.12c-0.34,0.31-0.93,0.3-1.36,0.32c-0.71,0.03-1.41,0.04-2.12,0.04
			c-1.53,0-3.06-0.05-4.6-0.09c-1.53-0.04-3.06-0.07-4.59-0.03c-0.86,0.02-2.67,0.56-3.07-0.49c-0.39-1.03,0.93-1.44,1.59-1.91
			c1.08-0.76,2-1.67,2.83-2.7c0.72-0.89,1.81-2,2.13-3.13c0.39-1.38-0.3-2.88-0.2-4.27c-0.15,0.35-0.29,0.71-0.44,1.06
			c0.36-0.39,1.55-0.45,2.07-0.95c0.69-0.68,0.75-1.75,0.12-2.48c-1.15-1.35-3.27-1.52-4.9-1.3c-0.8,0.11-1.24,1.14-1.05,1.85
			C19.76,10.32,20.56,10.62,21.36,10.51L21.36,10.51z"/>
	</g>
</g>
<g>
	<g>
		<path class="st0" d="M14.68,30.93c0.04,2.38,0.66,5.39,3.45,5.87c0-0.96,0-1.93,0-2.89c-0.58,0.22-1.19,0.42-1.81,0.5
			c-1.89,0.24-1.96,2.83,0,3c2.15,0.19,4.28-0.08,6.42-0.18c1.05-0.05,2.12-0.08,3.17,0.05c1.05,0.13,2.07,0.42,3.13,0.51
			c1.98,0.17,4.2-0.23,5.4-1.95c1.17-1.67,1.52-4.03,1.46-6.02c-0.04-1.2-1.23-1.79-2.26-1.3c-1.39,0.67-3.08,0.72-4.59,0.89
			c-1.78,0.19-3.56,0.34-5.34,0.38c-1.78,0.04-3.56-0.01-5.33-0.22c-0.8-0.1-1.57-0.22-2.23,0.38c-0.62,0.57-0.71,1.34-0.46,2.1
			c0.45,1.39,1.36,2.52,2.83,2.89c1.57,0.39,3.37,0.24,4.97,0.29c1.78,0.05,3.59,0.21,5.38,0.13c1.7-0.07,3.17-0.66,4.69-1.37
			c0.73-0.34,0.92-1.4,0.54-2.05c-0.44-0.75-1.32-0.88-2.05-0.54c-1.15,0.54-2.24,0.95-3.53,0.97c-1.37,0.02-2.75-0.07-4.12-0.11
			c-1.39-0.04-2.78-0.07-4.17-0.12c-0.64-0.02-1.76-0.13-1.67-0.98c-0.15,0.35-0.29,0.71-0.44,1.06c0.05-0.05,0.1-0.1,0.15-0.15
			c-0.22,0.13-0.44,0.26-0.66,0.39c0.23-0.05,0.7,0.11,0.95,0.14c0.41,0.05,0.83,0.09,1.24,0.12c0.71,0.05,1.42,0.08,2.13,0.1
			c1.55,0.03,3.09-0.04,4.63-0.16c2.83-0.22,6-0.28,8.6-1.53c-0.75-0.43-1.5-0.86-2.26-1.3c0.03,0.84-0.02,1.65-0.22,2.47
			c-0.16,0.66-0.35,1.59-0.87,2.06c-1.11,1.01-3.36,0.32-4.64,0.1c-3.62-0.62-7.22,0.27-10.85-0.05c0,1,0,2,0,3
			c0.9-0.12,1.76-0.28,2.61-0.61c0.63-0.24,1.1-0.74,1.1-1.45c0-0.61-0.46-1.34-1.1-1.45c-1.32-0.23-1.23-1.94-1.25-2.98
			C17.65,29,14.65,29,14.68,30.93L14.68,30.93z"/>
	</g>
</g>
</svg>
